<svg xmlns="http://www.w3.org/2000/svg" viewBox="0 0 24 24">
  <defs>
    <linearGradient id="g" x1="0" y1="0" x2="1" y2="1">
      <stop offset="0" stop-color="#6750A4" />
      <stop offset="1" stop-color="#0061A4" />
    </linearGradient>
  </defs>
  <rect x="1" y="1" width="22" height="22" rx="6" fill="url(#g)" />
  <path
    fill="#FFFFFF"
    d="M17 10h-1V8a4 4 0 0 0-8 0v2H7a1 1 0 0 0-1 1v7a2 2 0 0 0 2 2h8a2 2 0 0 0 2-2v-7a1 1 0 0 0-1-1zm-3 0H10V8a2 2 0 1 1 4 0v2zm-2 7a2 2 0 1 1 0-4 2 2 0 0 1 0 4z"
  />
</svg>
